<!DOCTYPE svg PUBLIC "-//W3C//DTD SVG 1.1//EN" "http://www.w3.org/Graphics/SVG/1.1/DTD/svg11.dtd">
<!-- Uploaded to: SVG Repo, www.svgrepo.com, Transformed by: SVG Repo Mixer Tools -->
<svg version="1.1" id="Layer_1" xmlns="http://www.w3.org/2000/svg" xmlns:xlink="http://www.w3.org/1999/xlink" viewBox="0 0 512 512" xml:space="preserve" width="800px" height="800px" fill="#000000">
<g id="SVGRepo_bgCarrier" stroke-width="0"/>
<g id="SVGRepo_tracerCarrier" stroke-linecap="round" stroke-linejoin="round"/>
<g id="SVGRepo_iconCarrier"> <polygon style="fill:#0384d8;" points="512,200.348 478.609,200.348 478.609,166.957 445.219,166.957 445.219,0 445.219,0 445.219,0 166.957,0 166.957,166.957 133.566,166.957 133.566,200.348 133.566,200.348 100.174,200.348 100.174,166.957 33.391,166.957 33.391,200.348 0,200.348 0,478.609 33.391,478.609 33.391,512 100.174,512 100.174,478.609 133.566,478.612 133.566,512 166.958,512 445.217,512 478.609,512 478.609,478.609 512,478.609 "/> <rect x="166.957" style="fill:#FFFFFF;" width="278.261" height="233.739"/> <rect x="233.739" y="66.783" width="144.696" height="33.391"/> <rect x="233.739" y="133.565" width="144.696" height="33.391"/> <polygon points="512,200.348 478.609,200.348 478.609,478.609 133.566,478.609 133.566,512 478.609,512 478.609,478.609 512,478.609 "/> <path d="M166.957,233.739h278.262l0,0l0,0v-33.391h33.391v-33.391h-33.391V0l0,0l0,0H166.957v33.391l0,0v133.565h-33.39v33.391 h33.39V233.739z M411.827,33.391v133.565l0,0v33.391H200.349V33.391H411.827z"/> <rect x="33.391" y="166.957" width="66.783" height="33.391"/> <rect y="200.348" width="33.391" height="278.261"/> <polygon points="100.174,200.348 100.174,200.348 100.174,478.609 33.391,478.609 33.391,512 100.174,512 100.174,478.609 133.566,478.609 133.566,478.609 133.566,478.609 133.566,200.348 "/> <g> <rect x="200.348" y="267.13" style="fill:#FFDA44;" width="33.391" height="33.391"/> <rect x="289.391" y="267.13" style="fill:#FFDA44;" width="33.391" height="33.391"/> <rect x="378.435" y="267.13" style="fill:#FFDA44;" width="33.391" height="33.391"/> <rect x="200.348" y="333.913" style="fill:#FFDA44;" width="33.391" height="33.391"/> <rect x="289.391" y="333.913" style="fill:#FFDA44;" width="33.391" height="33.391"/> <rect x="378.435" y="333.913" style="fill:#FFDA44;" width="33.391" height="33.391"/> <rect x="200.348" y="400.696" style="fill:#FFDA44;" width="33.391" height="33.391"/> <rect x="289.391" y="400.696" style="fill:#FFDA44;" width="33.391" height="33.391"/> <rect x="378.435" y="400.696" style="fill:#FFDA44;" width="33.391" height="33.391"/> </g> </g>
</svg>